/* XPM */
static char * netherearth_xpm[] = {
"16 18 248 2",
"  	c None",
". 	c #FFFE01",
"+ 	c #FEFF00",
"@ 	c #FEFF01",
"# 	c #FEFF03",
"$ 	c #FEFE05",
"% 	c #FFFF01",
"& 	c #FCFC01",
"* 	c #FAF801",
"= 	c #FCFA09",
"- 	c #FEFC02",
"; 	c #FCFB06",
"> 	c #FBFB04",
", 	c #FDFC07",
"' 	c #FCFB04",
") 	c #FEFE01",
"! 	c #FFFF00",
"~ 	c #FFFE02",
"{ 	c #FFFE03",
"] 	c #FFFE05",
"^ 	c #FCFC05",
"/ 	c #FDFD11",
"( 	c #C5C117",
"_ 	c #FCF91C",
": 	c #C6C313",
"< 	c #F9F90E",
"[ 	c #FDFE03",
"} 	c #FDFD05",
"| 	c #FEFD03",
"1 	c #FFFD01",
"2 	c #FFFE07",
"3 	c #FDFB05",
"4 	c #FEFD05",
"5 	c #FDFD0A",
"6 	c #FAFD03",
"7 	c #F7FB15",
"8 	c #807B2C",
"9 	c #86832A",
"0 	c #817C26",
"a 	c #EAE824",
"b 	c #FCFC08",
"c 	c #FDFD03",
"d 	c #FFFE00",
"e 	c #FEFD01",
"f 	c #FDFB04",
"g 	c #FDFB0B",
"h 	c #FCFC11",
"i 	c #FAFD0A",
"j 	c #ECF10E",
"k 	c #9D9D34",
"l 	c #7B7932",
"m 	c #CDD243",
"n 	c #C2C52F",
"o 	c #B5B61F",
"p 	c #FDFE15",
"q 	c #F8FB0C",
"r 	c #EAE91D",
"s 	c #ABA729",
"t 	c #BCBE20",
"u 	c #E7EE1E",
"v 	c #8A8A35",
"w 	c #79792F",
"x 	c #808526",
"y 	c #ECF430",
"z 	c #8C8C22",
"A 	c #ECEC1D",
"B 	c #FFFD02",
"C 	c #EBEB1F",
"D 	c #B5B52E",
"E 	c #8C8E1B",
"F 	c #AAAB2B",
"G 	c #6A6624",
"H 	c #82851C",
"I 	c #D4D92C",
"J 	c #7C7A32",
"K 	c #A9AA37",
"L 	c #928F34",
"M 	c #5B5024",
"N 	c #BDBB18",
"O 	c #FEFE04",
"P 	c #FDFF02",
"Q 	c #9A9D16",
"R 	c #9B9B3B",
"S 	c #F8FA24",
"T 	c #C6C81A",
"U 	c #716A2D",
"V 	c #F6F533",
"W 	c #EAEB34",
"X 	c #6E6C2E",
"Y 	c #F6F537",
"Z 	c #676527",
"` 	c #504731",
" .	c #B4B332",
"..	c #F3F510",
"+.	c #FEFD04",
"@.	c #969A1B",
"#.	c #565619",
"$.	c #F3F621",
"%.	c #E4E723",
"&.	c #5E571A",
"*.	c #F6F425",
"=.	c #C9C819",
"-.	c #5C5716",
";.	c #F7F41B",
">.	c #ACAF28",
",.	c #504A2C",
"'.	c #4B491B",
").	c #AAA91E",
"!.	c #FDFB16",
"~.	c #9A9A1B",
"{.	c #0B0B00",
"].	c #C3C34F",
"^.	c #B5B533",
"/.	c #9F9C38",
"(.	c #9E982C",
"_.	c #FBFD13",
":.	c #FEF92A",
"<.	c #FBF537",
"[.	c #8F8C26",
"}.	c #4C4417",
"|.	c #D8D540",
"1.	c #817D1D",
"2.	c #FAF82B",
"3.	c #FEFE0A",
"4.	c #FFFD06",
"5.	c #F7F932",
"6.	c #282B0B",
"7.	c #272313",
"8.	c #2C2813",
"9.	c #98934A",
"0.	c #4B461E",
"a.	c #F8F94A",
"b.	c #8C8C14",
"c.	c #827B34",
"d.	c #8C833A",
"e.	c #A29E22",
"f.	c #FAFC20",
"g.	c #D9DA27",
"h.	c #9B9B1E",
"i.	c #F7F615",
"j.	c #FBFD0E",
"k.	c #9EA125",
"l.	c #464326",
"m.	c #4A4926",
"n.	c #352E10",
"o.	c #9D9F2E",
"p.	c #504D25",
"q.	c #868835",
"r.	c #7D7D2A",
"s.	c #BAB258",
"t.	c #E2E225",
"u.	c #F8F92A",
"v.	c #B5B62E",
"w.	c #5A5C15",
"x.	c #F8F926",
"y.	c #F8FA1B",
"z.	c #FDFF06",
"A.	c #F0F12B",
"B.	c #5E5D26",
"C.	c #43451E",
"D.	c #B6B539",
"E.	c #F0F01D",
"F.	c #726E18",
"G.	c #B1B14B",
"H.	c #969428",
"I.	c #5A5322",
"J.	c #878421",
"K.	c #898B1C",
"L.	c #BCBE3D",
"M.	c #707026",
"N.	c #F5F52F",
"O.	c #F8F936",
"P.	c #FBFC05",
"Q.	c #FCFC10",
"R.	c #D4D438",
"S.	c #48491D",
"T.	c #B5B732",
"U.	c #FDFB0C",
"V.	c #FCFA15",
"W.	c #AAA935",
"X.	c #B6B036",
"Y.	c #A8A543",
"Z.	c #434019",
"`.	c #C5C934",
" +	c #B5B92D",
".+	c #827D26",
"++	c #F9F631",
"@+	c #F5F938",
"#+	c #FAF925",
"$+	c #4B4E12",
"%+	c #494617",
"&+	c #F5F330",
"*+	c #C8C315",
"=+	c #7B7F21",
"-+	c #707330",
";+	c #9B9F3D",
">+	c #565625",
",+	c #B0AF46",
"'+	c #9A9625",
")+	c #ACA516",
"!+	c #FBF816",
"~+	c #F9FB1A",
"{+	c #FEFC08",
"]+	c #FCFC1C",
"^+	c #A1A525",
"/+	c #141105",
"(+	c #6F6D29",
"_+	c #B5B043",
":+	c #DCE638",
"<+	c #414D19",
"[+	c #BFC72F",
"}+	c #716F1C",
"|+	c #A6A232",
"1+	c #E6E319",
"2+	c #FFFD0C",
"3+	c #FFFC07",
"4+	c #FBFB00",
"5+	c #FCFD0B",
"6+	c #FCFB10",
"7+	c #F8F826",
"8+	c #E7E928",
"9+	c #443C14",
"0+	c #8F9138",
"a+	c #B9BD3A",
"b+	c #B1B330",
"c+	c #878B21",
"d+	c #FBFC18",
"e+	c #FEFD0C",
"f+	c #FEFD0B",
"g+	c #FFFE04",
"h+	c #FBFA0B",
"i+	c #FCFA12",
"j+	c #FCFB19",
"k+	c #FBFB18",
"l+	c #AAA718",
"m+	c #8C883A",
"n+	c #807C2C",
"o+	c #9C9728",
"p+	c #F4F719",
"q+	c #FDFF03",
"r+	c #FAFA07",
"s+	c #FCFB09",
"t+	c #FAFB0A",
"u+	c #EFEE14",
"v+	c #989424",
"w+	c #FCFB1C",
"x+	c #FDF71B",
"y+	c #FCFC07",
". + @ # $ % & * = - ; > , ' ) ! ",
"~ ! { { { ] ^ / ( _ : < [ } | % ",
". 1 2 3 4 5 6 7 8 9 0 a b c { . ",
"d e f g h i j k l m n o p c e ~ ",
". $ q r s t u v w x y z A } B . ",
"~ C D E F G H I J K L M N O B ~ ",
"P Q R S T U V W X Y Z `  ...+.| ",
"[ @.#.$.%.&.*.=.-.;.>.,.'.).!.c ",
"| ~.{.].^./.(._.:.<.[.}.|.1.2.3.",
"4.5.6.7.8.9.0.a.b.c.d.e.f.g.h.i.",
"^ j.k.l.m.n.o.p.q.r.s.t.u.v.w.x.",
"y.z.A.B.C.D.E.F.G.H.I.J.K.L.M.N.",
"O.P.Q.R.S.T.U.V.W.X.Y.Z.`. +.+++",
"@+$ +.#+$+%+&+*+=+-+;+>+,+'+)+!+",
"~+[ {+]+^+/+(+_+:+<+[+}+|+1+2+3+",
"4+5+6+7+8+9+0+a+b+c+d+e+f+g+% % ",
"4+h+i+j+k+l+m+n+o+p+q+! ! ! ! ! ",
"4+r+s+r+t+u+v+w+x+y+% ! ! ! ! ! "};
